%TF.GenerationSoftware,KiCad,Pcbnew,(5.1.10)-1*%
%TF.CreationDate,2022-08-09T19:56:00-06:00*%
%TF.ProjectId,storage,73746f72-6167-4652-9e6b-696361645f70,rev?*%
%TF.SameCoordinates,Original*%
%TF.FileFunction,Soldermask,Top*%
%TF.FilePolarity,Negative*%
%FSLAX46Y46*%
G04 Gerber Fmt 4.6, Leading zero omitted, Abs format (unit mm)*
G04 Created by KiCad (PCBNEW (5.1.10)-1) date 2022-08-09 19:56:00*
%MOMM*%
%LPD*%
G01*
G04 APERTURE LIST*
%ADD10C,0.400000*%
%ADD11C,0.200000*%
%ADD12C,1.500000*%
%ADD13C,1.600000*%
%ADD14R,1.600000X1.600000*%
%ADD15O,1.600000X1.600000*%
%ADD16O,1.700000X1.700000*%
%ADD17R,1.700000X1.700000*%
G04 APERTURE END LIST*
D10*
X370387857Y-275874285D02*
X371502142Y-275874285D01*
X370902142Y-276560000D01*
X371159285Y-276560000D01*
X371330714Y-276645714D01*
X371416428Y-276731428D01*
X371502142Y-276902857D01*
X371502142Y-277331428D01*
X371416428Y-277502857D01*
X371330714Y-277588571D01*
X371159285Y-277674285D01*
X370645000Y-277674285D01*
X370473571Y-277588571D01*
X370387857Y-277502857D01*
X372187857Y-276045714D02*
X372273571Y-275960000D01*
X372445000Y-275874285D01*
X372873571Y-275874285D01*
X373045000Y-275960000D01*
X373130714Y-276045714D01*
X373216428Y-276217142D01*
X373216428Y-276388571D01*
X373130714Y-276645714D01*
X372102142Y-277674285D01*
X373216428Y-277674285D01*
X373987857Y-277674285D02*
X373987857Y-275874285D01*
X375016428Y-277674285D02*
X374245000Y-276645714D01*
X375016428Y-275874285D02*
X373987857Y-276902857D01*
D11*
X369208095Y-297942142D02*
X369589047Y-297675476D01*
X369208095Y-297485000D02*
X370008095Y-297485000D01*
X370008095Y-297789761D01*
X369970000Y-297865952D01*
X369931904Y-297904047D01*
X369855714Y-297942142D01*
X369741428Y-297942142D01*
X369665238Y-297904047D01*
X369627142Y-297865952D01*
X369589047Y-297789761D01*
X369589047Y-297485000D01*
X369627142Y-298285000D02*
X369627142Y-298551666D01*
X369208095Y-298665952D02*
X369208095Y-298285000D01*
X370008095Y-298285000D01*
X370008095Y-298665952D01*
X370008095Y-298894523D02*
X369208095Y-299161190D01*
X370008095Y-299427857D01*
X369208095Y-300723095D02*
X369208095Y-300265952D01*
X369208095Y-300494523D02*
X370008095Y-300494523D01*
X369893809Y-300418333D01*
X369817619Y-300342142D01*
X369779523Y-300265952D01*
D12*
X431800000Y-273050000D02*
X431800000Y-267335000D01*
X369570000Y-273050000D02*
X369570000Y-267335000D01*
X369570000Y-273050000D02*
X431800000Y-273050000D01*
X369570000Y-272415000D02*
X431800000Y-272415000D01*
X369570000Y-271780000D02*
X431800000Y-271780000D01*
X369570000Y-271145000D02*
X431800000Y-271145000D01*
X369570000Y-270510000D02*
X431800000Y-270510000D01*
X369570000Y-269875000D02*
X431800000Y-269875000D01*
X369570000Y-269240000D02*
X431800000Y-269240000D01*
X369570000Y-268605000D02*
X431800000Y-268605000D01*
X369570000Y-267970000D02*
X431800000Y-267970000D01*
X369570000Y-267335000D02*
X431800000Y-267335000D01*
D13*
%TO.C,0.1uf*%
X381635000Y-281900000D03*
X381635000Y-279400000D03*
%TD*%
D14*
%TO.C,28c256*%
X384172460Y-294640000D03*
D15*
X417192460Y-279400000D03*
X386712460Y-294640000D03*
X414652460Y-279400000D03*
X389252460Y-294640000D03*
X412112460Y-279400000D03*
X391792460Y-294640000D03*
X409572460Y-279400000D03*
X394332460Y-294640000D03*
X407032460Y-279400000D03*
X396872460Y-294640000D03*
X404492460Y-279400000D03*
X399412460Y-294640000D03*
X401952460Y-279400000D03*
X401952460Y-294640000D03*
X399412460Y-279400000D03*
X404492460Y-294640000D03*
X396872460Y-279400000D03*
X407032460Y-294640000D03*
X394332460Y-279400000D03*
X409572460Y-294640000D03*
X391792460Y-279400000D03*
X412112460Y-294640000D03*
X389252460Y-279400000D03*
X414652460Y-294640000D03*
X386712460Y-279400000D03*
X417192460Y-294640000D03*
X384172460Y-279400000D03*
%TD*%
D16*
%TO.C,20pin conn.*%
X376555000Y-304987960D03*
X376555000Y-302447960D03*
X379095000Y-304987960D03*
X379095000Y-302447960D03*
X381635000Y-304987960D03*
X381635000Y-302447960D03*
X384175000Y-304987960D03*
X384175000Y-302447960D03*
X386715000Y-304987960D03*
X386715000Y-302447960D03*
D17*
X389255000Y-304987960D03*
X389255000Y-302447960D03*
D16*
X391795000Y-304987960D03*
X391795000Y-302447960D03*
X394335000Y-304987960D03*
X394335000Y-302447960D03*
X396875000Y-304987960D03*
X396875000Y-302447960D03*
X399415000Y-304987960D03*
X399415000Y-302447960D03*
X401955000Y-304987960D03*
X401955000Y-302447960D03*
X404495000Y-304987960D03*
X404495000Y-302447960D03*
X407035000Y-304987960D03*
X407035000Y-302447960D03*
X409575000Y-304987960D03*
X409575000Y-302447960D03*
D17*
X412115000Y-304987960D03*
X412115000Y-302447960D03*
D16*
X414655000Y-304987960D03*
X414655000Y-302447960D03*
X417195000Y-304987960D03*
X417195000Y-302447960D03*
X419735000Y-304987960D03*
X419735000Y-302447960D03*
X422275000Y-304987960D03*
X422275000Y-302447960D03*
D17*
X424815000Y-304987960D03*
X424815000Y-302447960D03*
%TD*%
M02*
