%TF.GenerationSoftware,KiCad,Pcbnew,(5.1.10)-1*%
%TF.CreationDate,2022-08-09T19:56:00-06:00*%
%TF.ProjectId,storage,73746f72-6167-4652-9e6b-696361645f70,rev?*%
%TF.SameCoordinates,Original*%
%TF.FileFunction,Copper,L1,Top*%
%TF.FilePolarity,Positive*%
%FSLAX46Y46*%
G04 Gerber Fmt 4.6, Leading zero omitted, Abs format (unit mm)*
G04 Created by KiCad (PCBNEW (5.1.10)-1) date 2022-08-09 19:56:00*
%MOMM*%
%LPD*%
G01*
G04 APERTURE LIST*
%TA.AperFunction,ComponentPad*%
%ADD10C,1.600000*%
%TD*%
%TA.AperFunction,ComponentPad*%
%ADD11R,1.600000X1.600000*%
%TD*%
%TA.AperFunction,ComponentPad*%
%ADD12O,1.600000X1.600000*%
%TD*%
%TA.AperFunction,ComponentPad*%
%ADD13O,1.700000X1.700000*%
%TD*%
%TA.AperFunction,ComponentPad*%
%ADD14R,1.700000X1.700000*%
%TD*%
%TA.AperFunction,Conductor*%
%ADD15C,1.600000*%
%TD*%
%TA.AperFunction,Conductor*%
%ADD16C,0.250000*%
%TD*%
%TA.AperFunction,Conductor*%
%ADD17C,1.000000*%
%TD*%
%TA.AperFunction,Conductor*%
%ADD18C,2.500000*%
%TD*%
G04 APERTURE END LIST*
D10*
%TO.P,0.1uf,2*%
%TO.N,N/C*%
X381635000Y-281900000D03*
%TO.P,0.1uf,1*%
X381635000Y-279400000D03*
%TD*%
D11*
%TO.P,28c256,1*%
%TO.N,N/C*%
X384172460Y-294640000D03*
D12*
%TO.P,28c256,15*%
X417192460Y-279400000D03*
%TO.P,28c256,2*%
X386712460Y-294640000D03*
%TO.P,28c256,16*%
X414652460Y-279400000D03*
%TO.P,28c256,3*%
X389252460Y-294640000D03*
%TO.P,28c256,17*%
X412112460Y-279400000D03*
%TO.P,28c256,4*%
X391792460Y-294640000D03*
%TO.P,28c256,18*%
X409572460Y-279400000D03*
%TO.P,28c256,5*%
X394332460Y-294640000D03*
%TO.P,28c256,19*%
X407032460Y-279400000D03*
%TO.P,28c256,6*%
X396872460Y-294640000D03*
%TO.P,28c256,20*%
X404492460Y-279400000D03*
%TO.P,28c256,7*%
X399412460Y-294640000D03*
%TO.P,28c256,21*%
X401952460Y-279400000D03*
%TO.P,28c256,8*%
X401952460Y-294640000D03*
%TO.P,28c256,22*%
X399412460Y-279400000D03*
%TO.P,28c256,9*%
X404492460Y-294640000D03*
%TO.P,28c256,23*%
X396872460Y-279400000D03*
%TO.P,28c256,10*%
X407032460Y-294640000D03*
%TO.P,28c256,24*%
X394332460Y-279400000D03*
%TO.P,28c256,11*%
X409572460Y-294640000D03*
%TO.P,28c256,25*%
X391792460Y-279400000D03*
%TO.P,28c256,12*%
X412112460Y-294640000D03*
%TO.P,28c256,26*%
X389252460Y-279400000D03*
%TO.P,28c256,13*%
X414652460Y-294640000D03*
%TO.P,28c256,27*%
X386712460Y-279400000D03*
%TO.P,28c256,14*%
X417192460Y-294640000D03*
%TO.P,28c256,28*%
X384172460Y-279400000D03*
%TD*%
D13*
%TO.P,20pin conn.,40*%
%TO.N,N/C*%
X376555000Y-304987960D03*
%TO.P,20pin conn.,39*%
X376555000Y-302447960D03*
%TO.P,20pin conn.,38*%
X379095000Y-304987960D03*
%TO.P,20pin conn.,37*%
X379095000Y-302447960D03*
%TO.P,20pin conn.,36*%
X381635000Y-304987960D03*
%TO.P,20pin conn.,35*%
X381635000Y-302447960D03*
%TO.P,20pin conn.,34*%
X384175000Y-304987960D03*
%TO.P,20pin conn.,33*%
X384175000Y-302447960D03*
%TO.P,20pin conn.,32*%
X386715000Y-304987960D03*
%TO.P,20pin conn.,31*%
X386715000Y-302447960D03*
D14*
%TO.P,20pin conn.,30*%
X389255000Y-304987960D03*
%TO.P,20pin conn.,29*%
X389255000Y-302447960D03*
D13*
%TO.P,20pin conn.,28*%
X391795000Y-304987960D03*
%TO.P,20pin conn.,27*%
X391795000Y-302447960D03*
%TO.P,20pin conn.,26*%
X394335000Y-304987960D03*
%TO.P,20pin conn.,25*%
X394335000Y-302447960D03*
%TO.P,20pin conn.,24*%
X396875000Y-304987960D03*
%TO.P,20pin conn.,23*%
X396875000Y-302447960D03*
%TO.P,20pin conn.,22*%
X399415000Y-304987960D03*
%TO.P,20pin conn.,21*%
X399415000Y-302447960D03*
%TO.P,20pin conn.,20*%
X401955000Y-304987960D03*
%TO.P,20pin conn.,19*%
X401955000Y-302447960D03*
%TO.P,20pin conn.,18*%
X404495000Y-304987960D03*
%TO.P,20pin conn.,17*%
X404495000Y-302447960D03*
%TO.P,20pin conn.,16*%
X407035000Y-304987960D03*
%TO.P,20pin conn.,15*%
X407035000Y-302447960D03*
%TO.P,20pin conn.,14*%
X409575000Y-304987960D03*
%TO.P,20pin conn.,13*%
X409575000Y-302447960D03*
D14*
%TO.P,20pin conn.,12*%
X412115000Y-304987960D03*
%TO.P,20pin conn.,11*%
X412115000Y-302447960D03*
D13*
%TO.P,20pin conn.,10*%
X414655000Y-304987960D03*
%TO.P,20pin conn.,9*%
X414655000Y-302447960D03*
%TO.P,20pin conn.,8*%
X417195000Y-304987960D03*
%TO.P,20pin conn.,7*%
X417195000Y-302447960D03*
%TO.P,20pin conn.,6*%
X419735000Y-304987960D03*
%TO.P,20pin conn.,5*%
X419735000Y-302447960D03*
%TO.P,20pin conn.,4*%
X422275000Y-304987960D03*
%TO.P,20pin conn.,3*%
X422275000Y-302447960D03*
D14*
%TO.P,20pin conn.,2*%
X424815000Y-304987960D03*
%TO.P,20pin conn.,1*%
X424815000Y-302447960D03*
%TD*%
D15*
%TO.N,*%
X412115000Y-302447960D02*
X412115000Y-304987960D01*
X389255000Y-302447960D02*
X389255000Y-304987960D01*
D16*
X394967460Y-283845000D02*
X399412460Y-279400000D01*
X391160000Y-283845000D02*
X394967460Y-283845000D01*
X387985000Y-287020000D02*
X391160000Y-283845000D01*
X387985000Y-303717960D02*
X387985000Y-287020000D01*
X386715000Y-304987960D02*
X387985000Y-303717960D01*
X386712460Y-281937460D02*
X386712460Y-279400000D01*
X385445000Y-283204920D02*
X386712460Y-281937460D01*
X385445000Y-295910000D02*
X385445000Y-283204920D01*
X386715000Y-297180000D02*
X385445000Y-295910000D01*
X386715000Y-302447960D02*
X386715000Y-297180000D01*
X414652460Y-293372540D02*
X414652460Y-294640000D01*
X415290000Y-292735000D02*
X414652460Y-293372540D01*
X419735000Y-292735000D02*
X415290000Y-292735000D01*
X421005000Y-294005000D02*
X419735000Y-292735000D01*
X421005000Y-303687480D02*
X421005000Y-294005000D01*
X419699440Y-304993040D02*
X421005000Y-303687480D01*
X412112460Y-293372540D02*
X412112460Y-294640000D01*
X414020000Y-291465000D02*
X412112460Y-293372540D01*
X420370000Y-291465000D02*
X414020000Y-291465000D01*
X422239440Y-293334440D02*
X420370000Y-291465000D01*
X422239440Y-302453040D02*
X422239440Y-293334440D01*
X409572460Y-293372540D02*
X409572460Y-294640000D01*
X412750000Y-290195000D02*
X409572460Y-293372540D01*
X421005000Y-290195000D02*
X412750000Y-290195000D01*
X423545000Y-292735000D02*
X421005000Y-290195000D01*
X423545000Y-303687480D02*
X423545000Y-292735000D01*
X422239440Y-304993040D02*
X423545000Y-303687480D01*
D17*
X385445000Y-276225000D02*
X384172460Y-277497540D01*
D16*
X384175000Y-304987960D02*
X385445000Y-303717960D01*
X385445000Y-303717960D02*
X385445000Y-298450000D01*
X385445000Y-298450000D02*
X382905000Y-295910000D01*
X382905000Y-295910000D02*
X382905000Y-283210000D01*
X382905000Y-283210000D02*
X385445000Y-280670000D01*
X385445000Y-280670000D02*
X385445000Y-278130000D01*
X385445000Y-278130000D02*
X386080000Y-277495000D01*
X386080000Y-277495000D02*
X402587460Y-277495000D01*
X402587460Y-277495000D02*
X404492460Y-279400000D01*
D17*
X368935000Y-268605000D02*
X432435000Y-268605000D01*
X368935000Y-272415000D02*
X432435000Y-272415000D01*
X368935000Y-269875000D02*
X432435000Y-269875000D01*
X368935000Y-267335000D02*
X432435000Y-267335000D01*
X368935000Y-267970000D02*
X432435000Y-267970000D01*
X368935000Y-269240000D02*
X432435000Y-269240000D01*
X368935000Y-271780000D02*
X432435000Y-271780000D01*
X368935000Y-270510000D02*
X432435000Y-270510000D01*
X387350000Y-307340000D02*
X375285000Y-307340000D01*
X389255000Y-304987960D02*
X389255000Y-305435000D01*
X384175000Y-273685000D02*
X368935000Y-273685000D01*
X368935000Y-273685000D02*
X368935000Y-303530000D01*
X372745000Y-307340000D02*
X375285000Y-307340000D01*
X368935000Y-303530000D02*
X372745000Y-307340000D01*
X374332500Y-306387500D02*
X373062500Y-306387500D01*
X375285000Y-307340000D02*
X374332500Y-306387500D01*
X374332500Y-306387500D02*
X374015000Y-306070000D01*
X373062500Y-306387500D02*
X369570000Y-302895000D01*
X369570000Y-302895000D02*
X373380000Y-302895000D01*
X373380000Y-302895000D02*
X373380000Y-305435000D01*
X373380000Y-305435000D02*
X372745000Y-305435000D01*
X372745000Y-305435000D02*
X370840000Y-303530000D01*
X371475000Y-303530000D02*
X372745000Y-304800000D01*
X372110000Y-303530000D02*
X373380000Y-304800000D01*
X372110000Y-302895000D02*
X373380000Y-304165000D01*
D18*
X370205000Y-273685000D02*
X370205000Y-302895000D01*
X371475000Y-273685000D02*
X371475000Y-302895000D01*
X374015000Y-281940000D02*
X382270000Y-273685000D01*
D17*
X382270000Y-273050000D02*
X432435000Y-273050000D01*
X368935000Y-273050000D02*
X382270000Y-273050000D01*
D18*
X373380000Y-280670000D02*
X381635000Y-272415000D01*
X372110000Y-280035000D02*
X380365000Y-271780000D01*
X371475000Y-278765000D02*
X379730000Y-270510000D01*
X370840000Y-277495000D02*
X379095000Y-269240000D01*
D17*
X389255000Y-305435000D02*
X387350000Y-307340000D01*
X389610600Y-306085240D02*
X389610600Y-305003200D01*
X388620000Y-306705000D02*
X389255000Y-306070000D01*
X388620000Y-306705000D02*
X375285000Y-306705000D01*
X375285000Y-306705000D02*
X374015000Y-305435000D01*
X374015000Y-305435000D02*
X374015000Y-283845000D01*
X374015000Y-306070000D02*
X374015000Y-305435000D01*
X382905000Y-279400000D02*
X384172460Y-278132540D01*
X384172460Y-278132540D02*
X384172460Y-279400000D01*
X384172460Y-277497540D02*
X384172460Y-278132540D01*
X381635000Y-279400000D02*
X382905000Y-279400000D01*
X382905000Y-279400000D02*
X384172460Y-279400000D01*
X384810000Y-276225000D02*
X385445000Y-276225000D01*
X381635000Y-279400000D02*
X384810000Y-276225000D01*
X376595000Y-281900000D02*
X372745000Y-285750000D01*
D18*
X372745000Y-285750000D02*
X372745000Y-302895000D01*
X372745000Y-273685000D02*
X372745000Y-285750000D01*
D17*
X377507500Y-280352500D02*
X377507500Y-281622500D01*
X377230000Y-281900000D02*
X376595000Y-281900000D01*
X374015000Y-283845000D02*
X377507500Y-280352500D01*
X377507500Y-281622500D02*
X377230000Y-281900000D01*
X381635000Y-281900000D02*
X377230000Y-281900000D01*
X377507500Y-280352500D02*
X384175000Y-273685000D01*
X377380500Y-281241500D02*
X378015500Y-281876500D01*
X381635000Y-281900000D02*
X377865000Y-281900000D01*
X377865000Y-281900000D02*
X374650000Y-285115000D01*
X374650000Y-300990000D02*
X372745000Y-302895000D01*
X374650000Y-285115000D02*
X374650000Y-300990000D01*
X412369000Y-306832000D02*
X426339000Y-306832000D01*
X426847000Y-296926000D02*
X426847000Y-306070000D01*
X426847000Y-306070000D02*
X426720000Y-306197000D01*
X426720000Y-306197000D02*
X427355000Y-305562000D01*
X426085000Y-306832000D02*
X426720000Y-306197000D01*
X420370000Y-277495000D02*
X419100000Y-276225000D01*
X420370000Y-287020000D02*
X420370000Y-277495000D01*
X424815000Y-291465000D02*
X420370000Y-287020000D01*
X419100000Y-276225000D02*
X385445000Y-276225000D01*
X424815000Y-295656000D02*
X424815000Y-291465000D01*
X426847000Y-297688000D02*
X424815000Y-295656000D01*
X425577000Y-295656000D02*
X426085000Y-296164000D01*
X419227000Y-275590000D02*
X421005000Y-277368000D01*
X425577000Y-290957000D02*
X425577000Y-295656000D01*
X385445000Y-275590000D02*
X419227000Y-275590000D01*
X421005000Y-286385000D02*
X425577000Y-290957000D01*
X421005000Y-277368000D02*
X421005000Y-286385000D01*
X384810000Y-276225000D02*
X385445000Y-275590000D01*
X412115000Y-306070000D02*
X412115000Y-304987960D01*
X412115000Y-306070000D02*
X413385000Y-307340000D01*
X412115000Y-304987960D02*
X412115000Y-305689000D01*
X427355000Y-297180000D02*
X425450000Y-295275000D01*
X427355000Y-306705000D02*
X427355000Y-297180000D01*
X412750000Y-307340000D02*
X426720000Y-307340000D01*
X426720000Y-307340000D02*
X427355000Y-306705000D01*
X412115000Y-306705000D02*
X412750000Y-307340000D01*
X412115000Y-304987960D02*
X412115000Y-306705000D01*
X389255000Y-304352960D02*
X389255000Y-306070000D01*
X388355840Y-307340000D02*
X387350000Y-307340000D01*
X389610600Y-306085240D02*
X388355840Y-307340000D01*
X412115000Y-305435000D02*
X412115000Y-304987960D01*
X413385000Y-306705000D02*
X412115000Y-305435000D01*
D18*
X419100000Y-271780000D02*
X423545000Y-276225000D01*
X423545000Y-276225000D02*
X424815000Y-277495000D01*
D17*
X431800000Y-271145000D02*
X432435000Y-271145000D01*
X368935000Y-271145000D02*
X431800000Y-271145000D01*
D18*
X423545000Y-285115000D02*
X427990000Y-289560000D01*
X423545000Y-276225000D02*
X423545000Y-285115000D01*
D17*
X432435000Y-266700000D02*
X432435000Y-290195000D01*
X368935000Y-266700000D02*
X432435000Y-266700000D01*
X368935000Y-273685000D02*
X368935000Y-266700000D01*
X428625000Y-290195000D02*
X427990000Y-289560000D01*
X432308000Y-290322000D02*
X427964600Y-290322000D01*
X432435000Y-290195000D02*
X432308000Y-290322000D01*
D15*
X431800000Y-289560000D02*
X431800000Y-274320000D01*
D17*
X430530000Y-273685000D02*
X384175000Y-273685000D01*
X432435000Y-273685000D02*
X430530000Y-273685000D01*
D15*
X430530000Y-289560000D02*
X430530000Y-274320000D01*
X429260000Y-289560000D02*
X429260000Y-274320000D01*
X427990000Y-289560000D02*
X427990000Y-274320000D01*
X426720000Y-288290000D02*
X426720000Y-273050000D01*
X425450000Y-287020000D02*
X425450000Y-271780000D01*
D18*
X421005000Y-271145000D02*
X425450000Y-275590000D01*
D16*
X394332460Y-294640000D02*
X394335000Y-294640000D01*
X407032460Y-296542460D02*
X407032460Y-294640000D01*
X410845000Y-300355000D02*
X407032460Y-296542460D01*
X410845000Y-303687480D02*
X410845000Y-300355000D01*
X409539440Y-304993040D02*
X410845000Y-303687480D01*
X404492460Y-295907460D02*
X404492460Y-294640000D01*
X409539440Y-300954440D02*
X404492460Y-295907460D01*
X409539440Y-302453040D02*
X409539440Y-300954440D01*
X408305000Y-300992540D02*
X401952460Y-294640000D01*
X408305000Y-303687480D02*
X408305000Y-300992540D01*
X406999440Y-304993040D02*
X408305000Y-303687480D01*
X399412460Y-294002460D02*
X399376900Y-293966900D01*
X399412460Y-294640000D02*
X399412460Y-294002460D01*
X391792460Y-294637460D02*
X391756900Y-294601900D01*
X396875000Y-299720000D02*
X391792460Y-294637460D01*
X401320000Y-299720000D02*
X396875000Y-299720000D01*
X403225000Y-301625000D02*
X401320000Y-299720000D01*
X403225000Y-303687480D02*
X403225000Y-301625000D01*
X401919440Y-304993040D02*
X403225000Y-303687480D01*
X396872460Y-294637460D02*
X396836900Y-294601900D01*
X400050000Y-297815000D02*
X396872460Y-294637460D01*
X401955000Y-297815000D02*
X400050000Y-297815000D01*
X405765000Y-301625000D02*
X401955000Y-297815000D01*
X405765000Y-303687480D02*
X405765000Y-301625000D01*
X404459440Y-304993040D02*
X405765000Y-303687480D01*
X401317460Y-296545000D02*
X399412460Y-294640000D01*
X401955000Y-296545000D02*
X401317460Y-296545000D01*
X406999440Y-301589440D02*
X401955000Y-296545000D01*
X406999440Y-302453040D02*
X406999440Y-301589440D01*
X389252460Y-294637460D02*
X389216900Y-294601900D01*
X394970000Y-300355000D02*
X389252460Y-294637460D01*
X399862040Y-300355000D02*
X394970000Y-300355000D01*
X401919440Y-302412400D02*
X399862040Y-300355000D01*
X401919440Y-302453040D02*
X401919440Y-302412400D01*
X398142460Y-298450000D02*
X394332460Y-294640000D01*
X401320000Y-298450000D02*
X398142460Y-298450000D01*
X404459440Y-301589440D02*
X401320000Y-298450000D01*
X404459440Y-302453040D02*
X404459440Y-301589440D01*
%TD*%
M02*
