M48
; DRILL file {KiCad (5.1.10)-1} date 08/09/22 19:56:02
; FORMAT={-:-/ absolute / inch / decimal}
; #@! TF.CreationDate,2022-08-09T19:56:02-06:00
; #@! TF.GenerationSoftware,Kicad,Pcbnew,(5.1.10)-1
; #@! TF.FileFunction,Plated,1,2,PTH
FMAT,2
INCH
T1C0.0315
T2C0.0394
%
G90
G05
T1
X15.025Y-11.0
X15.025Y-11.0984
X15.1249Y-11.0
X15.1249Y-11.6
X15.2249Y-11.0
X15.2249Y-11.6
X15.3249Y-11.0
X15.3249Y-11.6
X15.4249Y-11.0
X15.4249Y-11.6
X15.5249Y-11.0
X15.5249Y-11.6
X15.6249Y-11.0
X15.6249Y-11.6
X15.7249Y-11.0
X15.7249Y-11.6
X15.8249Y-11.0
X15.8249Y-11.6
X15.9249Y-11.0
X15.9249Y-11.6
X16.0249Y-11.0
X16.0249Y-11.6
X16.1249Y-11.0
X16.1249Y-11.6
X16.2249Y-11.0
X16.2249Y-11.6
X16.3249Y-11.0
X16.3249Y-11.6
X16.4249Y-11.0
X16.4249Y-11.6
T2
X14.825Y-11.9074
X14.825Y-12.0074
X14.925Y-11.9074
X14.925Y-12.0074
X15.025Y-11.9074
X15.025Y-12.0074
X15.125Y-11.9074
X15.125Y-12.0074
X15.225Y-11.9074
X15.225Y-12.0074
X15.325Y-11.9074
X15.325Y-12.0074
X15.425Y-11.9074
X15.425Y-12.0074
X15.525Y-11.9074
X15.525Y-12.0074
X15.625Y-11.9074
X15.625Y-12.0074
X15.725Y-11.9074
X15.725Y-12.0074
X15.825Y-11.9074
X15.825Y-12.0074
X15.925Y-11.9074
X15.925Y-12.0074
X16.025Y-11.9074
X16.025Y-12.0074
X16.125Y-11.9074
X16.125Y-12.0074
X16.225Y-11.9074
X16.225Y-12.0074
X16.325Y-11.9074
X16.325Y-12.0074
X16.425Y-11.9074
X16.425Y-12.0074
X16.525Y-11.9074
X16.525Y-12.0074
X16.625Y-11.9074
X16.625Y-12.0074
X16.725Y-11.9074
X16.725Y-12.0074
T0
M30
