%TF.GenerationSoftware,KiCad,Pcbnew,(5.1.10)-1*%
%TF.CreationDate,2022-08-09T19:56:00-06:00*%
%TF.ProjectId,storage,73746f72-6167-4652-9e6b-696361645f70,rev?*%
%TF.SameCoordinates,Original*%
%TF.FileFunction,Soldermask,Bot*%
%TF.FilePolarity,Negative*%
%FSLAX46Y46*%
G04 Gerber Fmt 4.6, Leading zero omitted, Abs format (unit mm)*
G04 Created by KiCad (PCBNEW (5.1.10)-1) date 2022-08-09 19:56:00*
%MOMM*%
%LPD*%
G01*
G04 APERTURE LIST*
%ADD10C,1.600000*%
%ADD11R,1.600000X1.600000*%
%ADD12O,1.600000X1.600000*%
%ADD13O,1.700000X1.700000*%
%ADD14R,1.700000X1.700000*%
G04 APERTURE END LIST*
D10*
%TO.C,0.1uf*%
X381635000Y-281900000D03*
X381635000Y-279400000D03*
%TD*%
D11*
%TO.C,28c256*%
X384172460Y-294640000D03*
D12*
X417192460Y-279400000D03*
X386712460Y-294640000D03*
X414652460Y-279400000D03*
X389252460Y-294640000D03*
X412112460Y-279400000D03*
X391792460Y-294640000D03*
X409572460Y-279400000D03*
X394332460Y-294640000D03*
X407032460Y-279400000D03*
X396872460Y-294640000D03*
X404492460Y-279400000D03*
X399412460Y-294640000D03*
X401952460Y-279400000D03*
X401952460Y-294640000D03*
X399412460Y-279400000D03*
X404492460Y-294640000D03*
X396872460Y-279400000D03*
X407032460Y-294640000D03*
X394332460Y-279400000D03*
X409572460Y-294640000D03*
X391792460Y-279400000D03*
X412112460Y-294640000D03*
X389252460Y-279400000D03*
X414652460Y-294640000D03*
X386712460Y-279400000D03*
X417192460Y-294640000D03*
X384172460Y-279400000D03*
%TD*%
D13*
%TO.C,20pin conn.*%
X376555000Y-304987960D03*
X376555000Y-302447960D03*
X379095000Y-304987960D03*
X379095000Y-302447960D03*
X381635000Y-304987960D03*
X381635000Y-302447960D03*
X384175000Y-304987960D03*
X384175000Y-302447960D03*
X386715000Y-304987960D03*
X386715000Y-302447960D03*
D14*
X389255000Y-304987960D03*
X389255000Y-302447960D03*
D13*
X391795000Y-304987960D03*
X391795000Y-302447960D03*
X394335000Y-304987960D03*
X394335000Y-302447960D03*
X396875000Y-304987960D03*
X396875000Y-302447960D03*
X399415000Y-304987960D03*
X399415000Y-302447960D03*
X401955000Y-304987960D03*
X401955000Y-302447960D03*
X404495000Y-304987960D03*
X404495000Y-302447960D03*
X407035000Y-304987960D03*
X407035000Y-302447960D03*
X409575000Y-304987960D03*
X409575000Y-302447960D03*
D14*
X412115000Y-304987960D03*
X412115000Y-302447960D03*
D13*
X414655000Y-304987960D03*
X414655000Y-302447960D03*
X417195000Y-304987960D03*
X417195000Y-302447960D03*
X419735000Y-304987960D03*
X419735000Y-302447960D03*
X422275000Y-304987960D03*
X422275000Y-302447960D03*
D14*
X424815000Y-304987960D03*
X424815000Y-302447960D03*
%TD*%
M02*
