%TF.GenerationSoftware,KiCad,Pcbnew,(5.1.10)-1*%
%TF.CreationDate,2022-08-09T19:56:00-06:00*%
%TF.ProjectId,storage,73746f72-6167-4652-9e6b-696361645f70,rev?*%
%TF.SameCoordinates,Original*%
%TF.FileFunction,Legend,Top*%
%TF.FilePolarity,Positive*%
%FSLAX46Y46*%
G04 Gerber Fmt 4.6, Leading zero omitted, Abs format (unit mm)*
G04 Created by KiCad (PCBNEW (5.1.10)-1) date 2022-08-09 19:56:00*
%MOMM*%
%LPD*%
G01*
G04 APERTURE LIST*
%ADD10C,0.300000*%
%ADD11C,0.500000*%
%ADD12C,0.120000*%
%ADD13C,0.100000*%
%ADD14C,0.150000*%
G04 APERTURE END LIST*
D10*
X431254285Y-285958571D02*
X431254285Y-285541904D01*
X430599523Y-285541904D02*
X431849523Y-285541904D01*
X431849523Y-286137142D01*
X430599523Y-286613333D02*
X431432857Y-286613333D01*
X431194761Y-286613333D02*
X431313809Y-286672857D01*
X431373333Y-286732380D01*
X431432857Y-286851428D01*
X431432857Y-286970476D01*
X430599523Y-287565714D02*
X430659047Y-287446666D01*
X430718571Y-287387142D01*
X430837619Y-287327619D01*
X431194761Y-287327619D01*
X431313809Y-287387142D01*
X431373333Y-287446666D01*
X431432857Y-287565714D01*
X431432857Y-287744285D01*
X431373333Y-287863333D01*
X431313809Y-287922857D01*
X431194761Y-287982380D01*
X430837619Y-287982380D01*
X430718571Y-287922857D01*
X430659047Y-287863333D01*
X430599523Y-287744285D01*
X430599523Y-287565714D01*
X431432857Y-288518095D02*
X430599523Y-288518095D01*
X431313809Y-288518095D02*
X431373333Y-288577619D01*
X431432857Y-288696666D01*
X431432857Y-288875238D01*
X431373333Y-288994285D01*
X431254285Y-289053809D01*
X430599523Y-289053809D01*
X431432857Y-289470476D02*
X431432857Y-289946666D01*
X431849523Y-289649047D02*
X430778095Y-289649047D01*
X430659047Y-289708571D01*
X430599523Y-289827619D01*
X430599523Y-289946666D01*
D11*
X430784000Y-291973000D02*
X430784000Y-294767000D01*
X431038000Y-292227000D02*
X431038000Y-294513000D01*
X430530000Y-295275000D02*
X432435000Y-293370000D01*
X430530000Y-291465000D02*
X430530000Y-295275000D01*
X432435000Y-293370000D02*
X430530000Y-291465000D01*
X432054000Y-281813000D02*
X432054000Y-282067000D01*
X431800000Y-281559000D02*
X431800000Y-282321000D01*
X431292000Y-281051000D02*
X431292000Y-282829000D01*
X431546000Y-281305000D02*
X431546000Y-282575000D01*
X430784000Y-280543000D02*
X430784000Y-283337000D01*
X431038000Y-280797000D02*
X431038000Y-283083000D01*
X430530000Y-283845000D02*
X432435000Y-281940000D01*
X430530000Y-280035000D02*
X430530000Y-283845000D01*
X432435000Y-281940000D02*
X430530000Y-280035000D01*
X431546000Y-292735000D02*
X431546000Y-294005000D01*
X431292000Y-292481000D02*
X431292000Y-294259000D01*
X431800000Y-292989000D02*
X431800000Y-293751000D01*
X432054000Y-293243000D02*
X432054000Y-293497000D01*
D12*
%TO.C,0.1uf*%
X382555000Y-280021000D02*
X382555000Y-281279000D01*
X380715000Y-280021000D02*
X380715000Y-281279000D01*
%TO.C,28c256*%
X382782460Y-278070000D02*
X382782460Y-295970000D01*
X418582460Y-278070000D02*
X382782460Y-278070000D01*
X418582460Y-295970000D02*
X418582460Y-278070000D01*
X382782460Y-295970000D02*
X418582460Y-295970000D01*
X382842460Y-280560000D02*
X382842460Y-286020000D01*
X418522460Y-280560000D02*
X382842460Y-280560000D01*
X418522460Y-293480000D02*
X418522460Y-280560000D01*
X382842460Y-293480000D02*
X418522460Y-293480000D01*
X382842460Y-288020000D02*
X382842460Y-293480000D01*
X382842460Y-286020000D02*
G75*
G02*
X382842460Y-288020000I0J-1000000D01*
G01*
%TO.C,20pin conn.*%
X426145000Y-306427960D02*
X375225000Y-306427960D01*
X375225000Y-306427960D02*
X375225000Y-309087960D01*
X375225000Y-309087960D02*
X426145000Y-309087960D01*
X426145000Y-309087960D02*
X426145000Y-306427960D01*
X425195000Y-309087960D02*
X425195000Y-315087960D01*
X425195000Y-315087960D02*
X424435000Y-315087960D01*
X424435000Y-315087960D02*
X424435000Y-309087960D01*
X425135000Y-309087960D02*
X425135000Y-315087960D01*
X425015000Y-309087960D02*
X425015000Y-315087960D01*
X424895000Y-309087960D02*
X424895000Y-315087960D01*
X424775000Y-309087960D02*
X424775000Y-315087960D01*
X424655000Y-309087960D02*
X424655000Y-315087960D01*
X424535000Y-309087960D02*
X424535000Y-315087960D01*
X425195000Y-306030889D02*
X425195000Y-306427960D01*
X424435000Y-306030889D02*
X424435000Y-306427960D01*
X425195000Y-303557960D02*
X425195000Y-303945031D01*
X424435000Y-303557960D02*
X424435000Y-303945031D01*
X423545000Y-306427960D02*
X423545000Y-309087960D01*
X422655000Y-309087960D02*
X422655000Y-315087960D01*
X422655000Y-315087960D02*
X421895000Y-315087960D01*
X421895000Y-315087960D02*
X421895000Y-309087960D01*
X422655000Y-306030889D02*
X422655000Y-306427960D01*
X421895000Y-306030889D02*
X421895000Y-306427960D01*
X422655000Y-303490889D02*
X422655000Y-303945031D01*
X421895000Y-303490889D02*
X421895000Y-303945031D01*
X421005000Y-306427960D02*
X421005000Y-309087960D01*
X420115000Y-309087960D02*
X420115000Y-315087960D01*
X420115000Y-315087960D02*
X419355000Y-315087960D01*
X419355000Y-315087960D02*
X419355000Y-309087960D01*
X420115000Y-306030889D02*
X420115000Y-306427960D01*
X419355000Y-306030889D02*
X419355000Y-306427960D01*
X420115000Y-303490889D02*
X420115000Y-303945031D01*
X419355000Y-303490889D02*
X419355000Y-303945031D01*
X418465000Y-306427960D02*
X418465000Y-309087960D01*
X417575000Y-309087960D02*
X417575000Y-315087960D01*
X417575000Y-315087960D02*
X416815000Y-315087960D01*
X416815000Y-315087960D02*
X416815000Y-309087960D01*
X417575000Y-306030889D02*
X417575000Y-306427960D01*
X416815000Y-306030889D02*
X416815000Y-306427960D01*
X417575000Y-303490889D02*
X417575000Y-303945031D01*
X416815000Y-303490889D02*
X416815000Y-303945031D01*
X415925000Y-306427960D02*
X415925000Y-309087960D01*
X415035000Y-309087960D02*
X415035000Y-315087960D01*
X415035000Y-315087960D02*
X414275000Y-315087960D01*
X414275000Y-315087960D02*
X414275000Y-309087960D01*
X415035000Y-306030889D02*
X415035000Y-306427960D01*
X414275000Y-306030889D02*
X414275000Y-306427960D01*
X415035000Y-303490889D02*
X415035000Y-303945031D01*
X414275000Y-303490889D02*
X414275000Y-303945031D01*
X413385000Y-306427960D02*
X413385000Y-309087960D01*
X412495000Y-309087960D02*
X412495000Y-315087960D01*
X412495000Y-315087960D02*
X411735000Y-315087960D01*
X411735000Y-315087960D02*
X411735000Y-309087960D01*
X412495000Y-306030889D02*
X412495000Y-306427960D01*
X411735000Y-306030889D02*
X411735000Y-306427960D01*
X412495000Y-303490889D02*
X412495000Y-303945031D01*
X411735000Y-303490889D02*
X411735000Y-303945031D01*
X410845000Y-306427960D02*
X410845000Y-309087960D01*
X409955000Y-309087960D02*
X409955000Y-315087960D01*
X409955000Y-315087960D02*
X409195000Y-315087960D01*
X409195000Y-315087960D02*
X409195000Y-309087960D01*
X409955000Y-306030889D02*
X409955000Y-306427960D01*
X409195000Y-306030889D02*
X409195000Y-306427960D01*
X409955000Y-303490889D02*
X409955000Y-303945031D01*
X409195000Y-303490889D02*
X409195000Y-303945031D01*
X408305000Y-306427960D02*
X408305000Y-309087960D01*
X407415000Y-309087960D02*
X407415000Y-315087960D01*
X407415000Y-315087960D02*
X406655000Y-315087960D01*
X406655000Y-315087960D02*
X406655000Y-309087960D01*
X407415000Y-306030889D02*
X407415000Y-306427960D01*
X406655000Y-306030889D02*
X406655000Y-306427960D01*
X407415000Y-303490889D02*
X407415000Y-303945031D01*
X406655000Y-303490889D02*
X406655000Y-303945031D01*
X405765000Y-306427960D02*
X405765000Y-309087960D01*
X404875000Y-309087960D02*
X404875000Y-315087960D01*
X404875000Y-315087960D02*
X404115000Y-315087960D01*
X404115000Y-315087960D02*
X404115000Y-309087960D01*
X404875000Y-306030889D02*
X404875000Y-306427960D01*
X404115000Y-306030889D02*
X404115000Y-306427960D01*
X404875000Y-303490889D02*
X404875000Y-303945031D01*
X404115000Y-303490889D02*
X404115000Y-303945031D01*
X403225000Y-306427960D02*
X403225000Y-309087960D01*
X402335000Y-309087960D02*
X402335000Y-315087960D01*
X402335000Y-315087960D02*
X401575000Y-315087960D01*
X401575000Y-315087960D02*
X401575000Y-309087960D01*
X402335000Y-306030889D02*
X402335000Y-306427960D01*
X401575000Y-306030889D02*
X401575000Y-306427960D01*
X402335000Y-303490889D02*
X402335000Y-303945031D01*
X401575000Y-303490889D02*
X401575000Y-303945031D01*
X400685000Y-306427960D02*
X400685000Y-309087960D01*
X399795000Y-309087960D02*
X399795000Y-315087960D01*
X399795000Y-315087960D02*
X399035000Y-315087960D01*
X399035000Y-315087960D02*
X399035000Y-309087960D01*
X399795000Y-306030889D02*
X399795000Y-306427960D01*
X399035000Y-306030889D02*
X399035000Y-306427960D01*
X399795000Y-303490889D02*
X399795000Y-303945031D01*
X399035000Y-303490889D02*
X399035000Y-303945031D01*
X398145000Y-306427960D02*
X398145000Y-309087960D01*
X397255000Y-309087960D02*
X397255000Y-315087960D01*
X397255000Y-315087960D02*
X396495000Y-315087960D01*
X396495000Y-315087960D02*
X396495000Y-309087960D01*
X397255000Y-306030889D02*
X397255000Y-306427960D01*
X396495000Y-306030889D02*
X396495000Y-306427960D01*
X397255000Y-303490889D02*
X397255000Y-303945031D01*
X396495000Y-303490889D02*
X396495000Y-303945031D01*
X395605000Y-306427960D02*
X395605000Y-309087960D01*
X394715000Y-309087960D02*
X394715000Y-315087960D01*
X394715000Y-315087960D02*
X393955000Y-315087960D01*
X393955000Y-315087960D02*
X393955000Y-309087960D01*
X394715000Y-306030889D02*
X394715000Y-306427960D01*
X393955000Y-306030889D02*
X393955000Y-306427960D01*
X394715000Y-303490889D02*
X394715000Y-303945031D01*
X393955000Y-303490889D02*
X393955000Y-303945031D01*
X393065000Y-306427960D02*
X393065000Y-309087960D01*
X392175000Y-309087960D02*
X392175000Y-315087960D01*
X392175000Y-315087960D02*
X391415000Y-315087960D01*
X391415000Y-315087960D02*
X391415000Y-309087960D01*
X392175000Y-306030889D02*
X392175000Y-306427960D01*
X391415000Y-306030889D02*
X391415000Y-306427960D01*
X392175000Y-303490889D02*
X392175000Y-303945031D01*
X391415000Y-303490889D02*
X391415000Y-303945031D01*
X390525000Y-306427960D02*
X390525000Y-309087960D01*
X389635000Y-309087960D02*
X389635000Y-315087960D01*
X389635000Y-315087960D02*
X388875000Y-315087960D01*
X388875000Y-315087960D02*
X388875000Y-309087960D01*
X389635000Y-306030889D02*
X389635000Y-306427960D01*
X388875000Y-306030889D02*
X388875000Y-306427960D01*
X389635000Y-303490889D02*
X389635000Y-303945031D01*
X388875000Y-303490889D02*
X388875000Y-303945031D01*
X387985000Y-306427960D02*
X387985000Y-309087960D01*
X387095000Y-309087960D02*
X387095000Y-315087960D01*
X387095000Y-315087960D02*
X386335000Y-315087960D01*
X386335000Y-315087960D02*
X386335000Y-309087960D01*
X387095000Y-306030889D02*
X387095000Y-306427960D01*
X386335000Y-306030889D02*
X386335000Y-306427960D01*
X387095000Y-303490889D02*
X387095000Y-303945031D01*
X386335000Y-303490889D02*
X386335000Y-303945031D01*
X385445000Y-306427960D02*
X385445000Y-309087960D01*
X384555000Y-309087960D02*
X384555000Y-315087960D01*
X384555000Y-315087960D02*
X383795000Y-315087960D01*
X383795000Y-315087960D02*
X383795000Y-309087960D01*
X384555000Y-306030889D02*
X384555000Y-306427960D01*
X383795000Y-306030889D02*
X383795000Y-306427960D01*
X384555000Y-303490889D02*
X384555000Y-303945031D01*
X383795000Y-303490889D02*
X383795000Y-303945031D01*
X382905000Y-306427960D02*
X382905000Y-309087960D01*
X382015000Y-309087960D02*
X382015000Y-315087960D01*
X382015000Y-315087960D02*
X381255000Y-315087960D01*
X381255000Y-315087960D02*
X381255000Y-309087960D01*
X382015000Y-306030889D02*
X382015000Y-306427960D01*
X381255000Y-306030889D02*
X381255000Y-306427960D01*
X382015000Y-303490889D02*
X382015000Y-303945031D01*
X381255000Y-303490889D02*
X381255000Y-303945031D01*
X380365000Y-306427960D02*
X380365000Y-309087960D01*
X379475000Y-309087960D02*
X379475000Y-315087960D01*
X379475000Y-315087960D02*
X378715000Y-315087960D01*
X378715000Y-315087960D02*
X378715000Y-309087960D01*
X379475000Y-306030889D02*
X379475000Y-306427960D01*
X378715000Y-306030889D02*
X378715000Y-306427960D01*
X379475000Y-303490889D02*
X379475000Y-303945031D01*
X378715000Y-303490889D02*
X378715000Y-303945031D01*
X377825000Y-306427960D02*
X377825000Y-309087960D01*
X376935000Y-309087960D02*
X376935000Y-315087960D01*
X376935000Y-315087960D02*
X376175000Y-315087960D01*
X376175000Y-315087960D02*
X376175000Y-309087960D01*
X376935000Y-306030889D02*
X376935000Y-306427960D01*
X376175000Y-306030889D02*
X376175000Y-306427960D01*
X376935000Y-303490889D02*
X376935000Y-303945031D01*
X376175000Y-303490889D02*
X376175000Y-303945031D01*
X424815000Y-301177960D02*
X426085000Y-301177960D01*
X426085000Y-301177960D02*
X426085000Y-302447960D01*
%TO.C,0.1uf*%
D13*
X379182380Y-282170000D02*
X379182380Y-282074761D01*
X379230000Y-281979523D01*
X379277619Y-281931904D01*
X379372857Y-281884285D01*
X379563333Y-281836666D01*
X379801428Y-281836666D01*
X379991904Y-281884285D01*
X380087142Y-281931904D01*
X380134761Y-281979523D01*
X380182380Y-282074761D01*
X380182380Y-282170000D01*
X380134761Y-282265238D01*
X380087142Y-282312857D01*
X379991904Y-282360476D01*
X379801428Y-282408095D01*
X379563333Y-282408095D01*
X379372857Y-282360476D01*
X379277619Y-282312857D01*
X379230000Y-282265238D01*
X379182380Y-282170000D01*
X380087142Y-281408095D02*
X380134761Y-281360476D01*
X380182380Y-281408095D01*
X380134761Y-281455714D01*
X380087142Y-281408095D01*
X380182380Y-281408095D01*
X380182380Y-280408095D02*
X380182380Y-280979523D01*
X380182380Y-280693809D02*
X379182380Y-280693809D01*
X379325238Y-280789047D01*
X379420476Y-280884285D01*
X379468095Y-280979523D01*
X379515714Y-279550952D02*
X380182380Y-279550952D01*
X379515714Y-279979523D02*
X380039523Y-279979523D01*
X380134761Y-279931904D01*
X380182380Y-279836666D01*
X380182380Y-279693809D01*
X380134761Y-279598571D01*
X380087142Y-279550952D01*
X379515714Y-279217619D02*
X379515714Y-278836666D01*
X380182380Y-279074761D02*
X379325238Y-279074761D01*
X379230000Y-279027142D01*
X379182380Y-278931904D01*
X379182380Y-278836666D01*
%TO.C,28c256*%
D14*
X381180079Y-294719047D02*
X381132460Y-294671428D01*
X381084840Y-294576190D01*
X381084840Y-294338095D01*
X381132460Y-294242857D01*
X381180079Y-294195238D01*
X381275317Y-294147619D01*
X381370555Y-294147619D01*
X381513412Y-294195238D01*
X382084840Y-294766666D01*
X382084840Y-294147619D01*
X381513412Y-293576190D02*
X381465793Y-293671428D01*
X381418174Y-293719047D01*
X381322936Y-293766666D01*
X381275317Y-293766666D01*
X381180079Y-293719047D01*
X381132460Y-293671428D01*
X381084840Y-293576190D01*
X381084840Y-293385714D01*
X381132460Y-293290476D01*
X381180079Y-293242857D01*
X381275317Y-293195238D01*
X381322936Y-293195238D01*
X381418174Y-293242857D01*
X381465793Y-293290476D01*
X381513412Y-293385714D01*
X381513412Y-293576190D01*
X381561031Y-293671428D01*
X381608650Y-293719047D01*
X381703888Y-293766666D01*
X381894364Y-293766666D01*
X381989602Y-293719047D01*
X382037221Y-293671428D01*
X382084840Y-293576190D01*
X382084840Y-293385714D01*
X382037221Y-293290476D01*
X381989602Y-293242857D01*
X381894364Y-293195238D01*
X381703888Y-293195238D01*
X381608650Y-293242857D01*
X381561031Y-293290476D01*
X381513412Y-293385714D01*
X382037221Y-292338095D02*
X382084840Y-292433333D01*
X382084840Y-292623809D01*
X382037221Y-292719047D01*
X381989602Y-292766666D01*
X381894364Y-292814285D01*
X381608650Y-292814285D01*
X381513412Y-292766666D01*
X381465793Y-292719047D01*
X381418174Y-292623809D01*
X381418174Y-292433333D01*
X381465793Y-292338095D01*
X381180079Y-291957142D02*
X381132460Y-291909523D01*
X381084840Y-291814285D01*
X381084840Y-291576190D01*
X381132460Y-291480952D01*
X381180079Y-291433333D01*
X381275317Y-291385714D01*
X381370555Y-291385714D01*
X381513412Y-291433333D01*
X382084840Y-292004761D01*
X382084840Y-291385714D01*
X381084840Y-290480952D02*
X381084840Y-290957142D01*
X381561031Y-291004761D01*
X381513412Y-290957142D01*
X381465793Y-290861904D01*
X381465793Y-290623809D01*
X381513412Y-290528571D01*
X381561031Y-290480952D01*
X381656269Y-290433333D01*
X381894364Y-290433333D01*
X381989602Y-290480952D01*
X382037221Y-290528571D01*
X382084840Y-290623809D01*
X382084840Y-290861904D01*
X382037221Y-290957142D01*
X381989602Y-291004761D01*
X381084840Y-289576190D02*
X381084840Y-289766666D01*
X381132460Y-289861904D01*
X381180079Y-289909523D01*
X381322936Y-290004761D01*
X381513412Y-290052380D01*
X381894364Y-290052380D01*
X381989602Y-290004761D01*
X382037221Y-289957142D01*
X382084840Y-289861904D01*
X382084840Y-289671428D01*
X382037221Y-289576190D01*
X381989602Y-289528571D01*
X381894364Y-289480952D01*
X381656269Y-289480952D01*
X381561031Y-289528571D01*
X381513412Y-289576190D01*
X381465793Y-289671428D01*
X381465793Y-289861904D01*
X381513412Y-289957142D01*
X381561031Y-290004761D01*
X381656269Y-290052380D01*
%TD*%
M02*
